<svg xmlns="http://www.w3.org/2000/svg" viewBox="0 0 24 24" fill="none" stroke="#3d424b" stroke-width="1.8" stroke-linecap="round" stroke-linejoin="round">
<path d="M10.06 5.59 L11.16 3.44 L12.84 3.44 L13.94 5.59 L15.16 6.09 L17.46 5.35 L18.65 6.54 L17.91 8.84 L18.41 10.06 L20.56 11.16 L20.56 12.84 L18.41 13.94 L17.91 15.16 L18.65 17.46 L17.46 18.65 L15.16 17.91 L13.94 18.41 L12.84 20.56 L11.16 20.56 L10.06 18.41 L8.84 17.91 L6.54 18.65 L5.35 17.46 L6.09 15.16 L5.59 13.94 L3.44 12.84 L3.44 11.16 L5.59 10.06 L6.09 8.84 L5.35 6.54 L6.54 5.35 L8.84 6.09 Z"></path><circle cx="12" cy="12" r="3.2"></circle>
</svg>
